<svg width="120" height="120" viewBox="0 0 120 120" fill="none" xmlns="http://www.w3.org/2000/svg">
  <!-- Background circle -->
  <circle cx="60" cy="60" r="55" fill="#3B82F6" stroke="#1D4ED8" stroke-width="3"/>
  
  <!-- Chat bubble -->
  <path d="M30 45 Q30 35 40 35 H80 Q90 35 90 45 V65 Q90 75 80 75 H60 L50 85 V75 H40 Q30 75 30 65 V45Z" fill="white" stroke="#1D4ED8" stroke-width="2"/>
  
  <!-- Eyes -->
  <circle cx="45" cy="50" r="3" fill="#1D4ED8"/>
  <circle cx="65" cy="50" r="3" fill="#1D4ED8"/>
  
  <!-- Smile -->
  <path d="M45 60 Q55 70 65 60" stroke="#1D4ED8" stroke-width="2" fill="none"/>
  
  <!-- Decorative elements -->
  <circle cx="20" cy="20" r="3" fill="#FBBF24"/>
  <circle cx="100" cy="30" r="2" fill="#10B981"/>
  <circle cx="15" cy="95" r="2" fill="#F59E0B"/>
  <circle cx="105" cy="85" r="2.5" fill="#EF4444"/>
  
  <!-- Sparkles -->
  <path d="M25 15 L27 17 L29 15 L27 13 Z" fill="#FCD34D"/>
  <path d="M95 25 L97 27 L99 25 L97 23 Z" fill="#FCD34D"/>
  <path d="M85 95 L87 97 L89 95 L87 93 Z" fill="#FCD34D"/>
</svg>
